<svg width="37" height="37" viewBox="0 0 37 37" fill="none" xmlns="http://www.w3.org/2000/svg">
<path d="M34.4319 18.3637C34.4319 27.2333 27.2414 34.4319 18.3637 34.4319C9.486 34.4319 2.29547 27.2333 2.29547 18.3637C2.29547 9.48598 9.486 2.29546 18.3637 2.29546C27.2414 2.29546 34.4319 9.48598 34.4319 18.3637Z" fill="#283544"/>
<path d="M25.8952 14.2977C25.8075 14.3489 23.7202 15.4283 23.7202 17.8218C23.8186 20.5513 26.3543 21.5086 26.3978 21.5086C26.3543 21.5597 26.015 22.8126 25.0098 24.1259C24.2121 25.2572 23.3267 26.3978 21.9822 26.3978C20.7033 26.3978 20.2442 25.6438 18.7686 25.6438C17.1838 25.6438 16.7354 26.3978 15.5221 26.3978C14.1776 26.3978 13.2267 25.1961 12.3855 24.0754C11.2926 22.6087 10.3637 20.3069 10.3309 18.0968C10.3088 16.9256 10.5498 15.7744 11.1614 14.7966C12.0247 13.4315 13.566 12.5048 15.2491 12.4742C16.5387 12.4337 17.6864 13.2993 18.4734 13.2993C19.2277 13.2993 20.6377 12.4742 22.2331 12.4742C22.9218 12.4749 24.7582 12.6682 25.8952 14.2977ZM18.3644 12.2404C18.1348 11.1709 18.7686 10.1014 19.3588 9.41915C20.113 8.5941 21.3043 8.0341 22.3315 8.0341C22.3971 9.10361 21.9815 10.1525 21.2387 10.9165C20.5721 11.7415 19.4244 12.3626 18.3644 12.2404Z" fill="white"/>
</svg>
