<svg width="31" height="31" viewBox="0 0 31 31" fill="none" xmlns="http://www.w3.org/2000/svg">
<path fill-rule="evenodd" clip-rule="evenodd" d="M25.9798 15.7132C25.9798 14.9365 25.9101 14.1897 25.7807 13.4727H15.4642V17.7098H21.3593C21.1054 19.079 20.3337 20.2391 19.1736 21.0159V23.7643H22.7136C24.7849 21.8573 25.9798 19.0492 25.9798 15.7132Z" fill="#4285F4"/>
<path fill-rule="evenodd" clip-rule="evenodd" d="M15.4641 26.4179C18.4217 26.4179 20.9012 25.4371 22.7136 23.7641L19.1735 21.0157C18.1926 21.6729 16.9379 22.0613 15.4641 22.0613C12.6112 22.0613 10.1964 20.1344 9.33501 17.5454H5.67545V20.3834C7.47784 23.9633 11.1822 26.4179 15.4641 26.4179Z" fill="#34A853"/>
<path fill-rule="evenodd" clip-rule="evenodd" d="M9.3349 17.5456C9.11582 16.8884 8.99135 16.1863 8.99135 15.4644C8.99135 14.7424 9.11582 14.0404 9.3349 13.3832V10.5451H5.67534C4.93347 12.0239 4.51025 13.6968 4.51025 15.4644C4.51025 17.2319 4.93347 18.9049 5.67534 20.3836L9.3349 17.5456Z" fill="#FBBC05"/>
<path fill-rule="evenodd" clip-rule="evenodd" d="M15.4641 8.86719C17.0724 8.86719 18.5163 9.41985 19.6515 10.5053L22.7932 7.36353C20.8962 5.59599 18.4167 4.51057 15.4641 4.51057C11.1822 4.51057 7.47784 6.96521 5.67545 10.5451L9.335 13.3831C10.1964 10.7941 12.6112 8.86719 15.4641 8.86719Z" fill="#EA4335"/>
</svg>
