<svg width="35" height="35" viewBox="0 0 35 35" fill="none" xmlns="http://www.w3.org/2000/svg">
<path fill-rule="evenodd" clip-rule="evenodd" d="M14.0748 12.4213C14.0589 12.4213 14.0283 12.4213 14.0125 12.4213C13.7496 12.3893 13.5333 12.1484 13.5333 11.8755C13.5174 11.6186 13.3781 5.61417 16.7652 4.24959C17.616 3.91241 18.4056 3.97659 19.0705 4.47438C19.8896 5.06838 20.4775 6.25639 20.8333 7.9903C21.0803 9.21045 21.1267 10.27 21.1267 10.3182C21.1425 10.575 20.942 10.7678 20.6781 10.7196C20.4153 10.6874 20.1989 10.4467 20.1989 10.1897C20.1525 9.09806 19.7968 6.09589 18.622 5.22889C18.2504 4.95599 17.7859 4.92385 17.2297 5.14863C14.3217 6.32057 14.461 11.9558 14.461 12.02C14.461 12.2448 14.307 12.4213 14.0748 12.4213Z" fill="#595961"/>
<path opacity="0.46" fill-rule="evenodd" clip-rule="evenodd" d="M18.8995 4.50642C18.2809 4.05684 17.5547 3.99267 16.7652 4.2977C15.3887 4.85957 14.4145 6.33665 13.9353 8.58431C13.5796 10.2379 13.626 11.731 13.626 11.7952C13.626 11.8754 13.6566 11.9558 13.7189 12.02C13.7801 12.0842 13.8424 12.1324 13.9195 12.1324C13.9353 12.1324 13.9511 12.1324 13.9659 12.1324C14.1052 12.1324 14.2139 12.02 14.2139 11.8754C14.2139 11.8113 14.0747 6.07972 17.0597 4.87564C17.6624 4.63489 18.188 4.66692 18.6219 4.98803C19.8737 5.90314 20.2452 9.00174 20.2917 10.1095C20.2917 10.27 20.431 10.4306 20.601 10.4466C20.7561 10.4626 20.8796 10.3503 20.8796 10.1898C20.8638 9.99711 20.6939 5.82289 18.8995 4.50642Z" fill="#B2B2C2"/>
<path opacity="0.46" fill-rule="evenodd" clip-rule="evenodd" d="M13.9353 11.9397C13.9195 11.9397 13.9195 11.9397 13.9047 11.9397C13.8118 11.9236 13.7337 11.8273 13.7189 11.731C13.7189 11.6667 13.6725 10.2058 14.0282 8.55214C14.4916 6.35269 15.4669 4.89168 16.8116 4.34578C17.5695 4.04074 18.2503 4.10503 18.8383 4.52246C20.5704 5.79072 20.7403 9.90075 20.7403 10.0773C20.7403 10.1736 20.6633 10.2378 20.5704 10.2219C20.4775 10.2058 20.4004 10.1255 20.3846 10.0131C20.3846 9.96493 20.2146 5.93526 18.6525 4.77929C18.188 4.44221 17.6159 4.394 16.9668 4.65082C13.9353 5.91919 14.0747 11.731 14.0747 11.7952C14.0894 11.8754 14.0282 11.9397 13.9353 11.9397Z" fill="#B2B2C2"/>
<path opacity="0.62" fill-rule="evenodd" clip-rule="evenodd" d="M15.1883 7.34816C15.3118 7.10741 15.4353 6.86655 15.544 6.60973C15.4975 6.68998 15.1883 7.52484 14.2446 7.39638C14.2288 7.39638 14.8009 7.57295 15.1883 7.34816Z" fill="#595961"/>
<path opacity="0.62" fill-rule="evenodd" clip-rule="evenodd" d="M14.8473 8.3755C14.9402 8.11857 15.033 7.84568 15.0953 7.58885C15.0647 7.68517 14.9095 8.55207 13.9194 8.55207C13.9194 8.55207 14.4916 8.66447 14.8473 8.3755Z" fill="#595961"/>
<path opacity="0.62" fill-rule="evenodd" clip-rule="evenodd" d="M20.276 6.30464C20.1525 6.01557 20.0131 5.74267 19.8738 5.4537C19.9202 5.55003 20.3847 6.46514 19.859 7.12333C19.859 7.12333 20.2612 6.80232 20.276 6.30464Z" fill="#595961"/>
<path opacity="0.62" fill-rule="evenodd" clip-rule="evenodd" d="M19.4263 4.8597C19.1782 4.65099 18.9312 4.45834 18.6831 4.28177C18.776 4.36202 19.5962 4.95603 19.5497 5.85517C19.5339 5.85517 19.6733 5.32535 19.4263 4.8597Z" fill="#595961"/>
<path opacity="0.62" fill-rule="evenodd" clip-rule="evenodd" d="M15.6367 6.46492C15.8225 6.27228 15.9766 6.06356 16.1465 5.83878C16.0853 5.90296 15.5745 6.56125 14.6625 6.32039C14.6625 6.32039 15.1881 6.60946 15.6367 6.46492Z" fill="#595961"/>
<path opacity="0.62" fill-rule="evenodd" clip-rule="evenodd" d="M16.2088 5.72653C16.4252 5.56603 16.6258 5.40542 16.8274 5.22885C16.7503 5.27706 16.116 5.80678 15.2346 5.4215C15.2346 5.4215 15.7444 5.79071 16.2088 5.72653Z" fill="#595961"/>
<path opacity="0.62" fill-rule="evenodd" clip-rule="evenodd" d="M17.0438 5.19652C17.3067 5.11627 17.5547 5.01995 17.8017 4.92362C17.7088 4.95566 16.9203 5.24463 16.1466 4.63455C16.1624 4.63455 16.5646 5.11627 17.0438 5.19652Z" fill="#595961"/>
<path opacity="0.62" fill-rule="evenodd" clip-rule="evenodd" d="M17.8017 4.90784C18.0181 4.93998 18.2345 4.95606 18.4509 4.97213C18.3738 4.95606 17.6929 4.90784 17.3066 4.26562C17.3066 4.26562 17.4618 4.69912 17.8017 4.90784Z" fill="#595961"/>
<path opacity="0.62" fill-rule="evenodd" clip-rule="evenodd" d="M18.699 5.2607C18.8531 5.43738 19.024 5.61395 19.2088 5.77445C19.1475 5.71027 18.6219 5.18045 18.7454 4.52226C18.7296 4.52226 18.5596 4.89148 18.699 5.2607Z" fill="#595961"/>
<path opacity="0.74" fill-rule="evenodd" clip-rule="evenodd" d="M20.5704 9.99709C20.5704 9.82041 20.4004 5.75859 18.7148 4.52247C18.3897 4.28161 18.0339 4.16922 17.6624 4.16922C17.3837 4.16922 17.0903 4.2334 16.781 4.36186C15.4352 4.89169 14.4916 6.32056 14.0282 8.50393C13.6725 10.1415 13.7189 11.6025 13.7189 11.6667C13.7189 11.7149 13.7654 11.763 13.8118 11.763H13.8266C13.873 11.763 13.9047 11.731 13.9047 11.6828C13.9047 11.6186 13.7495 5.75859 16.858 4.5064C17.5389 4.2334 18.1268 4.28161 18.6219 4.65083C20.2294 5.82288 20.4004 9.91684 20.4004 9.96495C20.4004 10.0132 20.4469 10.0613 20.4933 10.0613C20.4933 10.0613 20.4933 10.0613 20.5081 10.0613C20.5397 10.0773 20.5704 10.0452 20.5704 9.99709Z" fill="url(#paint0_linear_2_2126)"/>
<path fill-rule="evenodd" clip-rule="evenodd" d="M20.8332 7.99041C20.4775 6.25651 19.8896 5.08447 19.0705 4.47439C18.6219 4.15339 18.1417 4.00885 17.616 4.04099C18.034 4.07303 18.4203 4.21757 18.776 4.47439C19.5962 5.0685 20.1841 6.25651 20.5398 7.99041C20.7868 9.21057 20.8332 10.2701 20.8332 10.3183C20.8332 10.511 20.7404 10.6555 20.5852 10.7036C20.6169 10.7197 20.6475 10.7197 20.6633 10.7197C20.9262 10.7518 21.1267 10.5752 21.1119 10.3183C21.1267 10.2701 21.0802 9.22664 20.8332 7.99041Z" fill="url(#paint1_linear_2_2126)"/>
<path fill-rule="evenodd" clip-rule="evenodd" d="M16.9362 5.14868C14.0282 6.32062 14.1675 11.9558 14.1675 12.02C14.1675 12.2127 14.0746 12.3572 13.9194 12.4053C13.9511 12.4214 13.9659 12.4214 13.9976 12.4214C14.0124 12.4214 14.044 12.4214 14.0588 12.4214C14.291 12.4214 14.4451 12.2448 14.4451 12.02C14.4451 11.9558 14.3068 6.33669 17.2138 5.16476C17.4154 5.0845 17.6011 5.03629 17.771 5.02022C17.523 4.97211 17.2454 5.02022 16.9362 5.14868Z" fill="url(#paint2_linear_2_2126)"/>
<path fill-rule="evenodd" clip-rule="evenodd" d="M21.3431 6.54524L8.22814 10.7515C8.22814 10.7515 7.67188 10.9121 7.53255 11.0887C7.39322 11.2652 7.3626 11.7629 7.3626 11.7629L5.33594 27.9782L20.5546 30.9322L21.7305 6.52916C21.5605 6.49702 21.3895 6.52917 21.3431 6.54524Z" fill="url(#paint3_linear_2_2126)"/>
<path fill-rule="evenodd" clip-rule="evenodd" d="M25.8755 8.63235C25.8755 8.63235 25.8597 8.50388 25.7826 8.45577C25.7203 8.40756 25.6433 8.40756 25.6433 8.40756L23.4932 8.24705L21.9162 6.62554C21.8539 6.57733 21.7917 6.54529 21.7146 6.52922L20.5398 30.9323L28.7824 29.086L25.8755 8.63235Z" fill="url(#paint4_linear_2_2126)"/>
<path fill-rule="evenodd" clip-rule="evenodd" d="M15.9303 20.0953C15.6981 19.7742 15.4204 19.4852 15.1418 19.2283C14.8631 18.9715 14.5697 18.7627 14.2752 18.5701C14.0747 18.4416 13.8889 18.3132 13.7337 18.1847C13.5796 18.0563 13.4561 17.9279 13.3632 17.8155C13.2703 17.687 13.1933 17.5746 13.1468 17.4463C13.1004 17.3178 13.0845 17.1893 13.0845 17.0609C13.0845 16.8843 13.131 16.7077 13.1933 16.5632C13.2545 16.4188 13.3632 16.2903 13.4709 16.1779C13.5954 16.0655 13.7337 15.9853 13.9047 15.9211C14.0746 15.8568 14.2752 15.8248 14.4915 15.8087C14.7238 15.7926 14.956 15.8087 15.1724 15.8248C15.3888 15.8407 15.5904 15.8889 15.7909 15.937C15.9767 15.9853 16.1625 16.0494 16.3166 16.1137C16.4717 16.1779 16.6258 16.2421 16.7345 16.3064L17.7553 13.1597C17.6012 13.0794 17.4154 12.9991 17.2138 12.9509C16.9974 12.8867 16.7652 12.8386 16.5024 12.8064C16.2395 12.7744 15.9609 12.7583 15.6674 12.7583C15.374 12.7583 15.0647 12.7744 14.7396 12.8225C14.0441 12.9188 13.4244 13.1114 12.8682 13.4004C12.3425 13.6734 11.8781 14.0266 11.4918 14.4601C11.1202 14.8775 10.8267 15.3591 10.6104 15.905C10.4088 16.4348 10.2853 17.0288 10.2547 17.6709C10.2388 18.0563 10.2694 18.4095 10.3623 18.7306C10.4394 19.0517 10.5639 19.3567 10.7339 19.6457C10.888 19.9347 11.0896 20.1916 11.306 20.4324C11.5223 20.6732 11.7852 20.898 12.048 21.1067C12.2644 21.2672 12.4502 21.4277 12.6053 21.5723C12.7594 21.7168 12.884 21.8612 12.9758 22.0218C13.0687 22.1663 13.131 22.3108 13.1774 22.4713C13.2239 22.6158 13.2397 22.7763 13.2239 22.9369C13.2239 23.0975 13.1775 23.258 13.1152 23.3864C13.054 23.5149 12.9758 23.6433 12.8523 23.7397C12.7447 23.836 12.6054 23.9002 12.4502 23.9323C12.2961 23.9644 12.1103 23.9804 11.9087 23.9484C11.6775 23.9162 11.4453 23.8521 11.2289 23.7556C11.0125 23.6754 10.7951 23.563 10.5946 23.4506C10.394 23.3383 10.2083 23.2098 10.0531 23.0975C9.88315 22.9851 9.7438 22.8566 9.63614 22.7603L8.93945 25.1525C9.04817 25.313 9.20232 25.4575 9.37226 25.6019C9.54325 25.7465 9.74382 25.8909 9.97604 26.0354C10.2083 26.1639 10.4553 26.2923 10.7181 26.4047C10.9809 26.517 11.2754 26.6134 11.5688 26.6937H11.5847H11.5994H11.6153H11.6311C12.2644 26.8382 12.8682 26.8703 13.4403 26.7901C14.0282 26.7097 14.5697 26.501 15.033 26.18C15.5122 25.8428 15.8996 25.3932 16.1931 24.7992C16.4875 24.2052 16.6575 23.4827 16.6881 22.6639C16.7039 22.1502 16.6417 21.7007 16.5024 21.2833C16.363 20.8017 16.1625 20.4324 15.9303 20.0953Z" fill="url(#paint5_linear_2_2126)"/>
<path opacity="0.226763" fill-rule="evenodd" clip-rule="evenodd" d="M9.03975 25.2833C9.00386 25.2407 8.97005 25.1972 8.93944 25.1526L9.63613 22.7604C9.64563 22.7693 9.65617 22.7786 9.66673 22.788C9.77017 22.8804 9.89897 22.9956 10.0531 23.0976C10.2082 23.21 10.394 23.3384 10.5946 23.4508C10.7951 23.5631 11.0125 23.6755 11.2289 23.7559C11.4453 23.8522 11.6775 23.9164 11.9087 23.9485C12.1103 23.9805 12.2961 23.9646 12.4502 23.9324C12.6053 23.9003 12.7447 23.8361 12.8523 23.7398C12.9758 23.6435 13.054 23.515 13.1152 23.3865C13.1774 23.2581 13.2239 23.0976 13.2239 22.9371C13.2397 22.7765 13.2238 22.616 13.1774 22.4714C13.131 22.3109 13.0687 22.1664 12.9758 22.022C12.8882 21.8693 12.7721 21.7313 12.6275 21.5939C12.7035 21.6797 12.7679 21.7679 12.8217 21.8613C12.9146 22.0059 12.9758 22.1503 13.0223 22.3109C13.0687 22.4553 13.0846 22.616 13.0687 22.7765C13.0687 22.9371 13.0223 23.0976 12.9611 23.226C12.8988 23.3545 12.8217 23.4829 12.6982 23.5792C12.5895 23.6755 12.4502 23.7398 12.2961 23.7718C12.1409 23.804 11.9551 23.82 11.7546 23.7879C11.5224 23.7559 11.2901 23.6916 11.0738 23.5953C10.8574 23.515 10.641 23.4026 10.4394 23.2902C10.2388 23.1778 10.0531 23.0495 9.89898 22.9371C9.74382 22.8351 9.61504 22.7199 9.5116 22.6275C9.50104 22.6181 9.49148 22.6088 9.48093 22.5999L8.78534 24.992C8.85395 25.0942 8.94159 25.1899 9.03975 25.2833ZM11.3186 20.4471C11.2606 20.3896 11.2046 20.3313 11.1508 20.272C10.9344 20.0311 10.7339 19.7743 10.5787 19.4853C10.4088 19.1963 10.2853 18.8912 10.2082 18.5702C10.1153 18.2491 10.0836 17.8958 10.0995 17.5106C10.1301 16.8683 10.2547 16.2743 10.4552 15.7445C10.6716 15.1987 10.9661 14.7171 11.3366 14.2997C11.724 13.8662 12.1873 13.5129 12.713 13.24C13.2703 12.9511 13.8888 12.7584 14.5844 12.6621C14.9095 12.6139 15.2188 12.5978 15.5123 12.5978C15.8068 12.5978 16.0854 12.6139 16.3482 12.646C16.6111 12.6782 16.8433 12.7263 17.0597 12.7906C17.2602 12.8387 17.446 12.9189 17.6012 12.9992L17.5769 13.0743C17.465 13.0256 17.3426 12.9818 17.2138 12.9511C16.9974 12.8869 16.7652 12.8387 16.5023 12.8065C16.2395 12.7745 15.9608 12.7584 15.6674 12.7584C15.374 12.7584 15.0647 12.7745 14.7396 12.8226C14.044 12.9189 13.4244 13.1116 12.8682 13.4006C12.3425 13.6735 11.8781 14.0267 11.4917 14.4602C11.1202 14.8776 10.8267 15.3592 10.6104 15.9051C10.4087 16.4349 10.2853 17.0289 10.2547 17.6711C10.2388 18.0565 10.2694 18.4096 10.3623 18.7307C10.4394 19.0518 10.5639 19.3569 10.7339 19.6458C10.888 19.9348 11.0896 20.1917 11.3059 20.4325C11.3102 20.4373 11.3144 20.4422 11.3186 20.4471ZM13.4191 17.8814C13.5036 17.9768 13.6092 18.0808 13.7337 18.1848C13.8889 18.3133 14.0746 18.4417 14.2752 18.5702C14.5697 18.7629 14.8631 18.9716 15.1418 19.2284C15.223 19.3032 15.3033 19.3806 15.3835 19.4609C15.2547 19.3224 15.1206 19.1914 14.9866 19.0679C14.709 18.811 14.4145 18.6022 14.1211 18.4096C13.9195 18.2811 13.7337 18.1528 13.5796 18.0243C13.5216 17.9764 13.4687 17.9285 13.4191 17.8814Z" fill="black"/>
<path opacity="0.41" fill-rule="evenodd" clip-rule="evenodd" d="M24.0187 26.3889L23.4931 8.24714L23.4002 8.15082L23.6483 26.132C23.6483 26.132 21.4675 29.5677 21.1424 29.4713C20.6632 29.3269 22.0861 6.8022 22.0861 6.8022L21.9309 6.6417C21.8697 6.59349 21.7916 6.56145 21.7304 6.54538L20.5704 30.6112L20.5545 30.9484L20.9566 30.4186L24.0187 26.3889Z" fill="url(#paint6_linear_2_2126)"/>
<path fill-rule="evenodd" clip-rule="evenodd" d="M18.0951 7.58898C17.9104 8.34348 17.6782 9.04988 17.5083 9.48339C17.3996 9.74031 17.5231 9.98107 17.7553 10.0132C18.0033 10.0454 18.2809 9.86867 18.3738 9.61185C18.3897 9.56364 18.8066 8.52016 19.0704 7.28394V7.26787L18.0951 7.58898Z" fill="url(#paint7_linear_2_2126)"/>
<path fill-rule="evenodd" clip-rule="evenodd" d="M11.1203 9.83644C10.9039 10.3181 10.6875 10.7355 10.5323 11.0245C10.3941 11.2653 10.4711 11.5221 10.7033 11.5863C10.9345 11.6667 11.2437 11.5221 11.3831 11.2813C11.3989 11.2492 11.8475 10.4626 12.2497 9.46712L11.1203 9.83644Z" fill="url(#paint8_linear_2_2126)"/>
<path opacity="0.32" fill-rule="evenodd" clip-rule="evenodd" d="M20.5545 30.9322L24.0187 26.3886L28.814 29.0859L20.5545 30.9322Z" fill="url(#paint9_linear_2_2126)"/>
<path opacity="0.19" fill-rule="evenodd" clip-rule="evenodd" d="M20.5545 30.9322L23.9881 26.3886L28.814 29.0859L20.5545 30.9322Z" fill="url(#paint10_linear_2_2126)"/>
<path opacity="0.19" fill-rule="evenodd" clip-rule="evenodd" d="M20.5545 30.9322L23.9881 26.3886L28.814 29.0859L20.5545 30.9322Z" fill="url(#paint11_linear_2_2126)"/>
<path opacity="0.6" fill-rule="evenodd" clip-rule="evenodd" d="M17.1832 18.2171C18.9776 20.7376 20.184 23.4669 20.7867 26.1159L21.7304 6.51323C21.5604 6.4812 21.3894 6.51323 21.343 6.52931L8.22807 10.7517C8.22807 10.7517 8.10453 10.7838 7.94937 10.8481C11.2753 12.0361 14.6003 14.5888 17.1832 18.2171Z" fill="url(#paint12_linear_2_2126)"/>
<path fill-rule="evenodd" clip-rule="evenodd" d="M25.7972 8.47185C25.8754 8.53613 25.8754 8.63245 25.8754 8.63245L28.7517 29.0699L24.0187 26.3728L23.493 8.23109L25.6125 8.39159C25.6273 8.40767 25.7202 8.40767 25.7972 8.47185Z" fill="url(#paint13_linear_2_2126)"/>
<path fill-rule="evenodd" clip-rule="evenodd" d="M25.4575 8.52022C25.4575 8.52022 25.5504 8.52022 25.6275 8.60047C25.7046 8.66476 25.7203 8.76108 25.7203 8.76108L28.5513 28.9738L28.7677 29.1023L25.8903 8.64869C25.8903 8.64869 25.8755 8.55236 25.8132 8.48818C25.7362 8.4239 25.6275 8.4239 25.6275 8.4239L23.509 8.2634L25.4575 8.52022Z" fill="url(#paint14_linear_2_2126)"/>
<path fill-rule="evenodd" clip-rule="evenodd" d="M5.33594 27.9779L20.5546 30.932L21.2977 14.203L7.22847 14.6029L5.33594 27.9779Z" fill="url(#paint15_linear_2_2126)"/>
<path opacity="0.3" fill-rule="evenodd" clip-rule="evenodd" d="M10.3317 10.9854C10.1934 11.3757 10.3296 11.7856 10.6378 11.9014C10.9449 12.017 11.3059 11.7946 11.4453 11.4044C11.5835 11.0143 11.4464 10.6042 11.1392 10.4886C10.832 10.3728 10.47 10.5953 10.3317 10.9854Z" fill="white"/>
<path opacity="0.89" fill-rule="evenodd" clip-rule="evenodd" d="M10.3149 10.8003C10.1766 11.1904 10.3138 11.6005 10.621 11.7161C10.9281 11.8319 11.2902 11.6094 11.4285 11.2193C11.5668 10.8291 11.4306 10.419 11.1224 10.3033C10.8152 10.1876 10.4542 10.4101 10.3149 10.8003Z" fill="black"/>
<path fill-rule="evenodd" clip-rule="evenodd" d="M23.5089 8.24705L21.9309 6.62554C21.8697 6.57733 21.7916 6.54529 21.7304 6.52922L20.5545 30.9323L24.0346 26.3727L23.5089 8.24705Z" fill="url(#paint16_linear_2_2126)"/>
<path fill-rule="evenodd" clip-rule="evenodd" d="M21.3431 6.54558L8.22815 10.7518C8.22815 10.7518 7.67189 10.9124 7.53256 11.089C7.51673 11.1051 7.51667 11.1211 7.50189 11.1372L20.7245 7.34829C20.8333 7.31615 21.0961 7.21983 21.0655 8.00648L20.2611 30.9004L20.5398 30.9486L21.7146 6.54558C21.5605 6.49736 21.3895 6.5295 21.3431 6.54558Z" fill="url(#paint17_linear_2_2126)"/>
<path fill-rule="evenodd" clip-rule="evenodd" d="M21.3431 6.54558L8.22815 10.7518C8.22815 10.7518 7.67189 10.9124 7.53256 11.089C7.51673 11.1051 7.51667 11.1211 7.50189 11.1372L10.564 10.2541L21.0961 6.86668C21.1425 6.85061 21.3125 6.81847 21.4824 6.85061L20.3224 30.9004L20.5398 30.9486L21.7146 6.54558C21.5605 6.49736 21.3895 6.5295 21.3431 6.54558Z" fill="url(#paint18_linear_2_2126)"/>
<path opacity="0.32" fill-rule="evenodd" clip-rule="evenodd" d="M24.7155 26.7741L24.0188 26.3728L20.5398 30.9323L20.7245 30.884C20.7245 30.884 23.7877 26.7902 24.0653 26.6617C24.2669 26.5815 24.7155 26.7741 24.7155 26.7741Z" fill="url(#paint19_linear_2_2126)"/>
<path opacity="0.57" fill-rule="evenodd" clip-rule="evenodd" d="M20.5545 30.9323L24.0346 26.3728C24.0187 26.3888 21.8233 28.8772 20.5545 30.9323Z" fill="url(#paint20_linear_2_2126)"/>
<path opacity="0.46" fill-rule="evenodd" clip-rule="evenodd" d="M28.814 29.0859L24.0345 26.3886C24.0187 26.3886 24.576 26.485 28.814 29.0859Z" fill="url(#paint21_linear_2_2126)"/>
<path opacity="0.3" fill-rule="evenodd" clip-rule="evenodd" d="M17.4027 9.38461C17.2634 9.77483 17.4006 10.1849 17.7078 10.3007C18.016 10.4164 18.377 10.1939 18.5153 9.80383C18.6546 9.4136 18.5174 9.00352 18.2102 8.88777C17.9031 8.77212 17.541 8.99449 17.4027 9.38461Z" fill="white"/>
<path opacity="0.89" fill-rule="evenodd" clip-rule="evenodd" d="M17.3859 9.20018C17.2476 9.59041 17.3849 10.0005 17.692 10.1162C17.9992 10.2319 18.3612 10.0095 18.4995 9.61929C18.6377 9.22917 18.5016 8.8191 18.1944 8.70334C17.8862 8.58759 17.5252 8.81006 17.3859 9.20018Z" fill="black"/>
<path fill-rule="evenodd" clip-rule="evenodd" d="M10.8732 11.5865C10.8574 11.5865 10.8268 11.5865 10.8109 11.5865C10.5639 11.5545 10.394 11.3136 10.4246 11.0407C10.4553 10.7838 11.3366 4.77938 14.956 3.4148C15.868 3.07762 16.6417 3.1418 17.2296 3.63959C17.941 4.23359 18.3273 5.4216 18.3896 7.1555C18.4361 8.37566 18.2968 9.4352 18.2968 9.48342C18.2662 9.74024 18.034 9.93299 17.7859 9.88478C17.5389 9.85263 17.3531 9.61188 17.3995 9.35495C17.5389 8.26327 17.693 5.2611 16.6575 4.39409C16.3324 4.1212 15.8839 4.08905 15.2811 4.31384C12.1726 5.48578 11.3524 11.121 11.3524 11.1691C11.2901 11.41 11.1054 11.5865 10.8732 11.5865Z" fill="#595961"/>
<path opacity="0.46" fill-rule="evenodd" clip-rule="evenodd" d="M17.0438 3.67154C16.5024 3.22207 15.791 3.15789 14.9402 3.46293C13.4709 4.02479 12.2338 5.50177 11.383 7.73336C10.7497 9.38702 10.5323 10.8801 10.5323 10.9444C10.5175 11.0246 10.5481 11.1049 10.5946 11.1691C10.641 11.2333 10.7033 11.2815 10.7803 11.2815C10.7951 11.2815 10.8109 11.2815 10.8268 11.2815C10.9661 11.2815 11.0896 11.1691 11.1054 11.0246C11.1202 10.9604 11.9404 5.22888 15.1418 4.0248C15.7909 3.78394 16.3165 3.81608 16.6881 4.13719C17.7858 5.05231 17.6318 8.15079 17.4924 9.25855C17.4766 9.41916 17.5853 9.57966 17.7394 9.59573C17.8946 9.6118 18.0487 9.49941 18.0645 9.33891C18.0804 9.16223 18.6219 4.98812 17.0438 3.67154Z" fill="#B2B2C2"/>
<path opacity="0.81" fill-rule="evenodd" clip-rule="evenodd" d="M10.811 11.1049C10.7952 11.1049 10.7952 11.1049 10.7804 11.1049C10.6875 11.0888 10.6252 10.9925 10.641 10.8962C10.6569 10.8319 10.8575 9.37101 11.4918 7.71736C12.3426 5.51791 13.549 4.0569 14.9867 3.511C15.8068 3.20597 16.4718 3.27025 16.9816 3.68768C18.4974 4.95594 17.9717 9.06598 17.9411 9.24255C17.9253 9.33887 17.8482 9.40305 17.7395 9.38708C17.6477 9.37101 17.5854 9.29076 17.5854 9.17837C17.5854 9.13016 18.111 5.10048 16.7505 3.94451C16.3483 3.63947 15.791 3.60743 15.1113 3.86426C11.8476 5.10048 10.9968 10.8962 10.9968 10.9604C10.981 11.0406 10.9039 11.1049 10.811 11.1049Z" fill="#B2B2C2"/>
<path opacity="0.42" fill-rule="evenodd" clip-rule="evenodd" d="M12.8523 6.51312C13.0223 6.27237 13.1774 6.03151 13.3315 5.77469C13.2703 5.85494 12.8217 6.6898 11.8939 6.56134C11.8781 6.56134 12.4196 6.73791 12.8523 6.51312Z" fill="#595961"/>
<path opacity="0.42" fill-rule="evenodd" clip-rule="evenodd" d="M12.3268 7.54047C12.4661 7.28354 12.6054 7.01064 12.7131 6.75381C12.6666 6.85014 12.3573 7.71704 11.3831 7.71704C11.3831 7.71704 11.9246 7.82943 12.3268 7.54047Z" fill="#595961"/>
<path opacity="0.42" fill-rule="evenodd" clip-rule="evenodd" d="M11.9245 8.60045C12.048 8.32745 12.141 8.05456 12.2338 7.78166C12.1874 7.87798 12.0175 8.76096 10.9968 8.87335C10.9968 8.85728 11.553 8.92156 11.9245 8.60045Z" fill="#595961"/>
<path opacity="0.62" fill-rule="evenodd" clip-rule="evenodd" d="M18.1109 5.46958C18.0338 5.18051 17.9568 4.90762 17.848 4.61865C17.8787 4.71497 18.188 5.63009 17.5547 6.28827C17.5547 6.28827 18.018 5.96727 18.1109 5.46958Z" fill="#595961"/>
<path opacity="0.62" fill-rule="evenodd" clip-rule="evenodd" d="M17.5083 4.02466C17.2919 3.81595 17.0745 3.6233 16.8581 3.44673C16.9362 3.52698 17.6624 4.12099 17.4619 5.02003C17.446 5.02003 17.6783 4.4902 17.5083 4.02466Z" fill="#595961"/>
<path opacity="0.62" fill-rule="evenodd" clip-rule="evenodd" d="M18.2661 6.9467C18.2503 6.65774 18.2039 6.3527 18.1574 6.06363C18.1574 6.17602 18.3126 7.12328 17.5695 7.63703C17.5695 7.63703 18.0803 7.41224 18.2661 6.9467Z" fill="#595961"/>
<path opacity="0.62" fill-rule="evenodd" clip-rule="evenodd" d="M18.3432 8.45594C18.3591 8.16697 18.3591 7.86193 18.3432 7.57297C18.3432 7.68536 18.359 8.63262 17.5695 9.06602C17.5695 9.05005 18.111 8.88944 18.3432 8.45594Z" fill="#595961"/>
<path opacity="0.42" fill-rule="evenodd" clip-rule="evenodd" d="M11.5687 9.77221C11.6616 9.48325 11.7239 9.19428 11.7851 8.92128C11.7545 9.0176 11.6152 9.93272 10.6715 10.1575C10.6874 10.1575 11.2436 10.1414 11.5687 9.77221Z" fill="#595961"/>
<path opacity="0.42" fill-rule="evenodd" clip-rule="evenodd" d="M13.4403 5.62989C13.6567 5.43724 13.8583 5.22853 14.044 5.00374C13.9659 5.06792 13.3474 5.72621 12.4819 5.48535C12.4966 5.48535 12.9759 5.77442 13.4403 5.62989Z" fill="#595961"/>
<path opacity="0.42" fill-rule="evenodd" clip-rule="evenodd" d="M14.1358 4.89176C14.3838 4.73125 14.6161 4.57065 14.8472 4.39407C14.7554 4.44229 14.0439 4.97201 13.2238 4.58672C13.2238 4.58672 13.6566 4.95594 14.1358 4.89176Z" fill="#595961"/>
<path opacity="0.62" fill-rule="evenodd" clip-rule="evenodd" d="M15.0795 4.362C15.3581 4.28164 15.621 4.18532 15.8838 4.089C15.7909 4.12114 14.956 4.41011 14.2752 3.80003C14.2752 3.80003 14.6002 4.28164 15.0795 4.362Z" fill="#595961"/>
<path opacity="0.62" fill-rule="evenodd" clip-rule="evenodd" d="M15.868 4.07305C16.0854 4.10519 16.3018 4.12126 16.5182 4.13734C16.4412 4.12126 15.7761 4.07305 15.4816 3.43083C15.4975 3.43083 15.5745 3.86433 15.868 4.07305Z" fill="#595961"/>
<path opacity="0.62" fill-rule="evenodd" clip-rule="evenodd" d="M16.7039 4.42601C16.8433 4.60258 16.9816 4.77916 17.1209 4.93976C17.0744 4.87548 16.6417 4.34576 16.858 3.68747C16.8739 3.68747 16.6417 4.05679 16.7039 4.42601Z" fill="#595961"/>
<path fill-rule="evenodd" clip-rule="evenodd" d="M17.771 9.1622C17.7858 8.98563 18.3125 4.92381 16.8432 3.68759C16.5646 3.44684 16.2247 3.33444 15.8532 3.33444C15.5745 3.33444 15.2652 3.39862 14.9401 3.52709C13.5173 4.05691 12.3266 5.48578 11.4917 7.66916C10.8573 9.30674 10.6567 10.7677 10.6409 10.8319C10.6409 10.88 10.6716 10.9283 10.718 10.9283H10.7338C10.7802 10.9283 10.8109 10.8961 10.8109 10.848C10.8267 10.7837 11.6616 4.92381 14.9865 3.67152C15.6979 3.39862 16.3017 3.44684 16.7345 3.81605C18.1415 4.98799 17.6159 9.08195 17.6011 9.13017C17.6011 9.17828 17.6317 9.22649 17.6782 9.22649C17.6782 9.22649 17.6781 9.22649 17.6929 9.22649C17.7394 9.24256 17.771 9.21042 17.771 9.1622Z" fill="url(#paint22_linear_2_2126)"/>
<path fill-rule="evenodd" clip-rule="evenodd" d="M18.3896 7.15536C18.3274 5.42146 17.941 4.24941 17.2296 3.63934C16.8433 3.31833 16.3789 3.1738 15.8532 3.20594C16.2554 3.23798 16.6259 3.38251 16.9362 3.63934C17.6476 4.23345 18.0339 5.42146 18.0951 7.15536C18.1416 8.37551 18.0033 9.43506 18.0033 9.48328C17.9717 9.67592 17.8482 9.82045 17.693 9.86856C17.7247 9.88463 17.7394 9.88463 17.7711 9.88463C18.0181 9.91678 18.2503 9.7401 18.2809 9.48328C18.2968 9.43506 18.4361 8.39159 18.3896 7.15536Z" fill="url(#paint23_linear_2_2126)"/>
<path fill-rule="evenodd" clip-rule="evenodd" d="M14.9719 4.31372C11.8634 5.48566 11.0432 11.1209 11.0432 11.1851C11.0126 11.3777 10.8881 11.5222 10.7339 11.5703C10.7646 11.5864 10.7804 11.5864 10.811 11.5864C10.8268 11.5864 10.8575 11.5864 10.8733 11.5864C11.1055 11.5864 11.2902 11.4098 11.3219 11.1851C11.3367 11.1209 12.141 5.50173 15.2495 4.32968C15.467 4.24943 15.6517 4.20132 15.8227 4.18525C15.5905 4.15311 15.296 4.20132 14.9719 4.31372Z" fill="url(#paint24_linear_2_2126)"/>
<defs>
<linearGradient id="paint0_linear_2_2126" x1="14.5253" y1="4.20546" x2="14.0403" y2="10.8094" gradientUnits="userSpaceOnUse">
<stop stop-color="white" stop-opacity="0.65"/>
<stop offset="1" stop-color="white" stop-opacity="0.01"/>
</linearGradient>
<linearGradient id="paint1_linear_2_2126" x1="18.0699" y1="7.98558" x2="21.4849" y2="10.9767" gradientUnits="userSpaceOnUse">
<stop stop-opacity="0.01"/>
<stop offset="1" stop-opacity="0.4"/>
</linearGradient>
<linearGradient id="paint2_linear_2_2126" x1="16.7007" y1="11.4458" x2="20.3154" y2="8.07892" gradientUnits="userSpaceOnUse">
<stop stop-opacity="0.01"/>
<stop offset="1" stop-opacity="0.4"/>
</linearGradient>
<linearGradient id="paint3_linear_2_2126" x1="12.0998" y1="1.6204" x2="-1.93995" y2="17.7972" gradientUnits="userSpaceOnUse">
<stop stop-color="#B8D26E"/>
<stop offset="1" stop-color="#7FB525"/>
</linearGradient>
<linearGradient id="paint4_linear_2_2126" x1="31.3051" y1="5.67041" x2="23.5998" y2="5.81349" gradientUnits="userSpaceOnUse">
<stop stop-color="#B4E034"/>
<stop offset="1" stop-color="#60A927"/>
</linearGradient>
<linearGradient id="paint5_linear_2_2126" x1="8.38635" y1="16.4571" x2="2.06904" y2="31.841" gradientUnits="userSpaceOnUse">
<stop stop-color="white"/>
<stop offset="1" stop-color="#CECEEB"/>
</linearGradient>
<linearGradient id="paint6_linear_2_2126" x1="17.4439" y1="54.343" x2="27.4492" y2="54.3227" gradientUnits="userSpaceOnUse">
<stop stop-color="#1D1D1B" stop-opacity="0.5"/>
<stop offset="0.038033" stop-color="#1D1D1B" stop-opacity="0.4837"/>
<stop offset="0.4243" stop-color="#1D1D1B" stop-opacity="0.3185"/>
<stop offset="1" stop-color="#1D1D1B" stop-opacity="0.01"/>
</linearGradient>
<linearGradient id="paint7_linear_2_2126" x1="18.606" y1="6.19036" x2="16.9461" y2="7.08371" gradientUnits="userSpaceOnUse">
<stop stop-opacity="0.01"/>
<stop offset="1" stop-opacity="0.4"/>
</linearGradient>
<linearGradient id="paint8_linear_2_2126" x1="11.647" y1="8.83992" x2="10.4802" y2="9.84269" gradientUnits="userSpaceOnUse">
<stop stop-opacity="0.01"/>
<stop offset="1" stop-opacity="0.4"/>
</linearGradient>
<linearGradient id="paint9_linear_2_2126" x1="23.0287" y1="29.0979" x2="23.1468" y2="30.6551" gradientUnits="userSpaceOnUse">
<stop stop-opacity="0.01"/>
<stop offset="1" stop-opacity="0.4"/>
</linearGradient>
<linearGradient id="paint10_linear_2_2126" x1="20.2706" y1="26.8182" x2="20.5444" y2="30.8668" gradientUnits="userSpaceOnUse">
<stop stop-color="white" stop-opacity="0.5"/>
<stop offset="0.0896271" stop-color="white" stop-opacity="0.4552"/>
<stop offset="1" stop-color="white" stop-opacity="0.01"/>
</linearGradient>
<linearGradient id="paint11_linear_2_2126" x1="19.7439" y1="27.4479" x2="20.231" y2="31.7727" gradientUnits="userSpaceOnUse">
<stop stop-opacity="0.01"/>
<stop offset="1" stop-opacity="0.4"/>
</linearGradient>
<linearGradient id="paint12_linear_2_2126" x1="17.8323" y1="2.56538" x2="5.33779" y2="9.79172" gradientUnits="userSpaceOnUse">
<stop stop-color="white" stop-opacity="0.5"/>
<stop offset="1" stop-color="white" stop-opacity="0.01"/>
</linearGradient>
<linearGradient id="paint13_linear_2_2126" x1="20.2431" y1="40.3327" x2="31.2712" y2="40.3549" gradientUnits="userSpaceOnUse">
<stop stop-color="#1D1D1B" stop-opacity="0.5"/>
<stop offset="0.0896271" stop-color="#1D1D1B" stop-opacity="0.4552"/>
<stop offset="1" stop-color="#1D1D1B" stop-opacity="0.01"/>
</linearGradient>
<linearGradient id="paint14_linear_2_2126" x1="28.1407" y1="7.655" x2="26.5741" y2="8.03886" gradientUnits="userSpaceOnUse">
<stop stop-color="white" stop-opacity="0.4"/>
<stop offset="1" stop-color="white" stop-opacity="0.01"/>
</linearGradient>
<linearGradient id="paint15_linear_2_2126" x1="14.0852" y1="31.1107" x2="14.8998" y2="27.1833" gradientUnits="userSpaceOnUse">
<stop stop-color="#1D1D1B" stop-opacity="0.5"/>
<stop offset="0.0896271" stop-color="#1D1D1B" stop-opacity="0.4552"/>
<stop offset="1" stop-color="#1D1D1B" stop-opacity="0.01"/>
</linearGradient>
<linearGradient id="paint16_linear_2_2126" x1="18.7949" y1="53.843" x2="28.8362" y2="53.8517" gradientUnits="userSpaceOnUse">
<stop stop-color="#1D1D1B" stop-opacity="0.5"/>
<stop offset="1" stop-color="#1D1D1B" stop-opacity="0.01"/>
</linearGradient>
<linearGradient id="paint17_linear_2_2126" x1="9.61929" y1="5.13078" x2="4.74932" y2="23.8411" gradientUnits="userSpaceOnUse">
<stop stop-color="white" stop-opacity="0.5"/>
<stop offset="1" stop-color="white" stop-opacity="0.01"/>
</linearGradient>
<linearGradient id="paint18_linear_2_2126" x1="9.61929" y1="5.13078" x2="4.74932" y2="23.8411" gradientUnits="userSpaceOnUse">
<stop stop-color="white" stop-opacity="0.5"/>
<stop offset="1" stop-color="white" stop-opacity="0.01"/>
</linearGradient>
<linearGradient id="paint19_linear_2_2126" x1="21.4381" y1="24.744" x2="17.5888" y2="30.042" gradientUnits="userSpaceOnUse">
<stop stop-color="white" stop-opacity="0.5"/>
<stop offset="0.0896271" stop-color="white" stop-opacity="0.4552"/>
<stop offset="1" stop-color="white" stop-opacity="0.01"/>
</linearGradient>
<linearGradient id="paint20_linear_2_2126" x1="22.5991" y1="25.962" x2="22.218" y2="26.8164" gradientUnits="userSpaceOnUse">
<stop stop-opacity="0.01"/>
<stop offset="1" stop-opacity="0.4"/>
</linearGradient>
<linearGradient id="paint21_linear_2_2126" x1="26.3789" y1="27.0916" x2="26.3601" y2="27.3212" gradientUnits="userSpaceOnUse">
<stop stop-opacity="0.01"/>
<stop offset="1" stop-opacity="0.4"/>
</linearGradient>
<linearGradient id="paint22_linear_2_2126" x1="12.5176" y1="2.79401" x2="10.8536" y2="9.36786" gradientUnits="userSpaceOnUse">
<stop stop-color="white" stop-opacity="0.65"/>
<stop offset="1" stop-color="white" stop-opacity="0.01"/>
</linearGradient>
<linearGradient id="paint23_linear_2_2126" x1="16.2417" y1="6.58615" x2="19.1364" y2="9.52913" gradientUnits="userSpaceOnUse">
<stop stop-opacity="0.01"/>
<stop offset="1" stop-opacity="0.4"/>
</linearGradient>
<linearGradient id="paint24_linear_2_2126" x1="14.3914" y1="10.92" x2="18.3909" y2="6.81258" gradientUnits="userSpaceOnUse">
<stop stop-opacity="0.01"/>
<stop offset="1" stop-opacity="0.4"/>
</linearGradient>
</defs>
</svg>
