<svg width="40" height="40" viewBox="0 0 40 40" fill="none" xmlns="http://www.w3.org/2000/svg">
<circle cx="19.9746" cy="19.9747" r="14.9809" fill="#1ED760"/>
<path d="M27.9797 18.3637C23.4573 15.6612 15.9975 15.4127 11.6804 16.7313C10.9871 16.9429 10.254 16.5491 10.0439 15.8515C9.83381 15.1536 10.2248 14.4164 10.9186 14.2043C15.8744 12.6904 24.1129 12.9829 29.3191 16.0927C29.9427 16.4651 30.1472 17.2755 29.7777 17.902C29.4078 18.5294 28.6018 18.7363 27.9797 18.3637ZM27.8316 22.3665C27.5143 22.8845 26.8411 23.047 26.327 22.7289C22.5566 20.3969 16.8074 19.7214 12.3468 21.0837C11.7683 21.2597 11.1573 20.9315 10.9817 20.3506C10.8073 19.7685 11.1337 19.1548 11.711 18.9778C16.8067 17.422 23.1413 18.1756 27.4717 20.8533C27.9859 21.1719 28.1477 21.8498 27.8316 22.3665ZM26.1149 26.2106C25.8627 26.6267 25.3245 26.757 24.9125 26.5034C21.6178 24.4773 17.471 24.0197 12.5874 25.1422C12.1168 25.2507 11.6479 24.954 11.5405 24.4805C11.4327 24.0071 11.7264 23.5351 12.1982 23.427C17.5424 22.1977 22.1267 22.7267 25.8247 25.0005C26.237 25.2539 26.3669 25.7959 26.1149 26.2106Z" fill="white"/>
</svg>
