<svg width="17" height="17" viewBox="0 0 17 17" fill="none" xmlns="http://www.w3.org/2000/svg">
<path d="M8.49351 16.9125L10.8697 3.54876C13.1346 3.54876 13.849 3.79713 13.9522 4.81087C13.9522 4.81087 15.4715 4.24435 16.2379 3.09377C13.2475 1.70809 10.2428 1.6456 10.2428 1.6456L8.48956 3.78105L8.49351 3.78078L6.74024 1.64526C6.74024 1.64526 3.73553 1.70782 0.745544 3.0935C1.51119 4.24408 3.03117 4.8106 3.03117 4.8106C3.13492 3.79679 3.84845 3.54843 6.09817 3.54682L8.49351 16.9125Z" fill="#E82127"/>
<path d="M8.49251 1.02881C10.9098 1.01032 13.6767 1.40276 16.5091 2.63727C16.8877 1.95588 16.985 1.65474 16.985 1.65474C13.8887 0.429743 10.9891 0.0105158 8.49218 0C5.99537 0.0105158 3.09588 0.42981 0 1.65474C0 1.65474 0.138112 2.02567 0.475557 2.63727C3.30747 1.40276 6.07481 1.01032 8.49218 1.02881H8.49251Z" fill="#E82127"/>
</svg>
